<svg xmlns="http://www.w3.org/2000/svg" viewBox="0 0 512 512" width="512" height="512">
  <rect width="512" height="512" fill="#0a0a0a" rx="100" />
  <path d="M256 100C170 100 100 170 100 256C100 342 170 412 256 412C342 412 412 342 412 256C412 170 342 100 256 100ZM256 372C192 372 140 320 140 256C140 192 192 140 256 140C320 140 372 192 372 256C372 320 320 372 256 372Z" fill="#00d4ff"/>
  <path d="M256 180C214 180 180 214 180 256C180 298 214 332 256 332C298 332 332 298 332 256C332 214 298 180 256 180ZM286 271H271V286C271 294.3 264.3 301 256 301C247.7 301 241 294.3 241 286V271H226C217.7 271 211 264.3 211 256C211 247.7 217.7 241 226 241H241V226C241 217.7 247.7 211 256 211C264.3 211 271 217.7 271 226V241H286C294.3 241 301 247.7 301 256C301 264.3 294.3 271 286 271Z" fill="#00d4ff"/>
</svg>
